File:: Neds.2010.READNFO.DVDSCR.XViD-T0XiC-iNK
Video Source:: ....BiGPOTaTO/Chapman
Audio Source:: ....BiGPOTaTO/Chapman
Language::English
IMDB::http://www.imdb.com/title/tt1560970/
Format : AVI
Format/Info : Audio Video Interleave
File size : 704 MiB
Duration : 1h 37mn
Overall bit rate : 1 005 Kbps
Writing application : VirtualDubMod 1.5.10.2 (build 2540/release)
Writing library : VirtualDubMod build 2540/release
Format : MPEG-4 Visual
Format profile : Advanced Simple@L5
Format settings, BVOP : Yes
Format settings, QPel : No
Format settings, GMC : No warppoints
Format settings, Matrix : Default (MPEG)
Codec ID : XVID
Codec ID/Hint : XviD
Duration : 1h 37mn
Bit rate : 867 Kbps
Width : 720 pixels
Height : 304 pixels
Display aspect ratio : 2.35:1
Frame rate : 23.976 fps
Color space : YUV
Chroma subsampling : 4:2:0
Bit depth : 8 bits
Scan type : Progressive
Bits/(Pixel*Frame) : 0.165
Stream size : 608 MiB (86%)
Writing library : XviD 1.2.1 (UTC 2008-12-04)
Format : MPEG Audio
Format version : Version 1
Format profile : Layer 3
Mode : Joint stereo
Mode extension : MS Stereo
Codec ID : 55
Codec ID/Hint : MP3
Duration : 1h 37mn
Bit rate mode : Constant
Bit rate : 128 Kbps
Channel(s) : 2 channels
Sampling rate : 48.0 KHz
Stream size : 89.7 MiB (13%)
Alignment : Aligned on interleaves
Interleave, duration : 42 ms (1.00 video frame)
Interleave, preload duration : 504 ms


Plot

Peter Mullan's third feature as a writer and director, after Orphans and The Magdalene Sisters, returns him to the 1970s Glasgow of his youth. The film gives a very accurate portrayal of what life can be like for a young kid growing up in Glasgow. The film is set in the 70's but the main themes are just as applicable for youngsters in 2011 (trying to fit in, feeling like part of a group/gang). Follows a bright student who makes the wrong choices and finds himself part of a young gang.


CAPT:
 
http://img248.imageshack.us/img248/6964/thumbs20110201165639.jpg



WWW..CRAZY-TORRENT..COM